{"title":"Warrior [2011] DVD SCREENER MKV AC3 c00kies","uid":6832102,"size":1337222028,"categoryP":"video","categoryS":"movies","magnet":"?xt=urn:btih:0b2e9c4f4b919a90a09ddc9047e539aa7a2607ac&amp;dn=Warrior+%5B2011%5D+DVD+SCREENER+MKV+AC3+c00kies&amp;tr=udp%3A%2F%2Ftracker.openbittorrent.com%3A80&amp;tr=udp%3A%2F%2Fopen.demonii.com%3A1337&amp;tr=udp%3A%2F%2Ftracker.coppersurfer.tk%3A6969&amp;tr=udp%3A%2F%2Fexodus.desync.com%3A6969","seeders":0,"leechers":1,"uploader":"LegendET","files":2,"time":1321903236,"description":"[center]\n\n\n\n &lt;a href=&quot;\nhttp://imdb.com/title/tt1291584/&quot; rel=&quot;nofollow&quot; target=&quot;_NEW&quot;&gt;\nhttp://imdb.com/title/tt1291584/&lt;/a&gt;\n\nThe youngest son (Hardy) of an alcoholic former boxer (Nolte) returns home, where he's trained by his father for competition in a mixed martial arts tournament -- a path that puts the fighter on a collision corner with his older brother (Edgerton).\n\n\nFormat : Matroska\nFormat version : Version 2\nFile size : 1.25 GiB\nDuration : 2h 19mn\nOverall bit rate : 1 275 Kbps\nWriting application : HandBrake 0.9.5\nWriting library : libmkv 0.6.4.1\n\nVideo\nID : 1\nFormat : AVC\nFormat/Info : Advanced Video Codec\nFormat profile : &lt;a class=&quot;__cf_email__&quot; href=&quot;/cdn-cgi/l/email-protection&quot; data-cfemail=&quot;5f173638371f136c716f&quot;&gt;[email&amp;#160;protected]&lt;/a&gt;&lt;script cf-hash='f9e31' type=&quot;text/javascript&quot;&gt;\n/* &lt;![CDATA[ */!function(){try{var t=&quot;currentScript&quot;in document?document.currentScript:function(){for(var t=document.getElementsByTagName(&quot;script&quot;),e=t.length;e--;)if(t[e].getAttribute(&quot;cf-hash&quot;))return t[e]}();if(t&amp;&amp;t.previousSibling){var e,r,n,i,c=t.previousSibling,a=c.getAttribute(&quot;data-cfemail&quot;);if(a){for(e=&quot;&quot;,r=parseInt(a.substr(0,2),16),n=2;a.length-n;n+=2)i=parseInt(a.substr(n,2),16)^r,e+=String.fromCharCode(i);e=document.createTextNode(e),c.parentNode.replaceChild(e,c)}}}catch(u){}}();/* ]]&gt; */&lt;/script&gt;\nFormat settings, CABAC : Yes\nFormat settings, ReFrames : 6 frames\nCodec ID : V_MPEG4/ISO/AVC\nDuration : 2h 19mn\nBit rate : 1 057 Kbps\nWidth : 720 pixels\nHeight : 304 pixels\nDisplay aspect ratio : 2.35:1\nFrame rate mode : Variable\nFrame rate : 23.976 fps\nColor space : YUV\nChroma subsampling : 4:2:0\nBit depth : 8 bits\nScan type : Progressive\nBits/(Pixel*Frame) : 0.201\nStream size : 1.03 GiB (83%)\nWriting library : x264 core 112\nEncoding settings : cabac=1 / ref=6 / deblock=1:-2:-2 / analyse=0x3:0x133 / me=umh / subme=9 / psy=1 / psy_rd=1.00:0.00 / mixed_ref=1 / me_range=24 / chroma_me=1 / trellis=2 / 8x8dct=1 / cqm=0 / deadzone=21,11 / fast_pskip=0 / chroma_qp_offset=-2 / threads=3 / sliced_threads=0 / nr=0 / decimate=1 / interlaced=0 / constrained_intra=0 / bframes=6 / b_pyramid=2 / b_adapt=2 / b_bias=0 / direct=3 / weightb=1 / open_gop=0 / weightp=2 / keyint=240 / keyint_min=23 / scenecut=40 / intra_refresh=0 / rc_lookahead=50 / rc=crf / mbtree=1 / crf=19.0 / qcomp=0.60 / qpmin=3 / qpmax=51 / qpstep=4 / ip_ratio=1.40 / aq=1:1.20\nLanguage : English\nColor primaries : BT.601-6 525, BT.1358 525, BT.1700 NTSC, SMPTE 170M\nTransfer characteristics : BT.709-5, BT.1361\nMatrix coefficients : BT.601-6 525, BT.1358 525, BT.1700 NTSC, SMPTE 170M\n\nAudio\nID : 2\nFormat : AC-3\nFormat/Info : Audio Coding 3\nMode extension : CM (complete main)\nCodec ID : A_AC3\nDuration : 2h 19mn\nBit rate mode : Constant\nBit rate : 192 Kbps\nChannel(s) : 2 channels\nChannel positions : Front: L R\nSampling rate : 48.0 KHz\nBit depth : 16 bits\nCompression mode : Lossy\nStream size : 192 MiB (15%)\nLanguage : English\n\n\n[img]http://img337.imageshack.us/img337/4753/nkxcynlm.png[/img]\n[img]http://img819.imageshack.us/img819/5228/o4nzyxw6.png[/img]\n[img]http://img338.imageshack.us/img338/7831/rb0wud1h.png[/img][/center]","torrent":{"xt":"urn:btih:0b2e9c4f4b919a90a09ddc9047e539aa7a2607ac","amp;dn":"Warrior+%5B2011%5D+DVD+SCREENER+MKV+AC3+c00kies","amp;tr":["udp%3A%2F%2Ftracker.openbittorrent.com%3A80","udp%3A%2F%2Fopen.demonii.com%3A1337","udp%3A%2F%2Ftracker.coppersurfer.tk%3A6969","udp%3A%2F%2Fexodus.desync.com%3A6969"],"infoHash":"0b2e9c4f4b919a90a09ddc9047e539aa7a2607ac","infoHashBuffer":{"type":"Buffer","data":[11,46,156,79,75,145,154,144,160,157,220,144,71,229,57,170,122,38,7,172]},"announce":[],"urlList":[]}}